<svg width="17" height="15" viewBox="0 0 17 15" fill="none" xmlns="http://www.w3.org/2000/svg">
<path d="M5.39857 1.6616L7.35286 3.61017L7.68428 3.94731H15.0157V13.0902H1.30143V1.6616H5.39857ZM5.39857 0.518738H1.30143C0.998322 0.518738 0.707632 0.639146 0.493304 0.853473C0.278977 1.0678 0.158569 1.35849 0.158569 1.6616V13.0902C0.158569 13.3933 0.278977 13.684 0.493304 13.8983C0.707632 14.1126 0.998322 14.233 1.30143 14.233H15.0157C15.3188 14.233 15.6095 14.1126 15.8238 13.8983C16.0382 13.684 16.1586 13.3933 16.1586 13.0902V3.94731C16.1586 3.64421 16.0382 3.35352 15.8238 3.13919C15.6095 2.92486 15.3188 2.80445 15.0157 2.80445H8.15857L6.21 0.855881C6.10368 0.748928 5.97724 0.664074 5.83798 0.606211C5.69872 0.548347 5.54938 0.518619 5.39857 0.518738Z" fill="#94A3AD"/>
</svg>
