<svg width="21" height="21" viewBox="0 0 21 21" fill="none" xmlns="http://www.w3.org/2000/svg">
<path d="M10.0044 2.88065H11.2544V17.8806H10.0044V2.88065Z" fill="#F8F8F3"/>
<path d="M6.87939 4.75565V16.0056H3.12939V4.75565H6.87939ZM6.87939 3.50565H3.12939C2.79787 3.50565 2.47993 3.63734 2.24551 3.87176C2.01109 4.10618 1.87939 4.42413 1.87939 4.75565V16.0056C1.87939 16.3372 2.01109 16.6551 2.24551 16.8895C2.47993 17.1239 2.79787 17.2556 3.12939 17.2556H6.87939C7.21091 17.2556 7.52886 17.1239 7.76328 16.8895C7.9977 16.6551 8.12939 16.3372 8.12939 16.0056V4.75565C8.12939 4.42413 7.9977 4.10618 7.76328 3.87176C7.52886 3.63734 7.21091 3.50565 6.87939 3.50565Z" fill="#F8F8F3"/>
<path d="M18.1294 4.75565V16.0056H14.3794V4.75565H18.1294ZM18.1294 3.50565H14.3794C14.0479 3.50565 13.7299 3.63734 13.4955 3.87176C13.2611 4.10618 13.1294 4.42413 13.1294 4.75565V16.0056C13.1294 16.3372 13.2611 16.6551 13.4955 16.8895C13.7299 17.1239 14.0479 17.2556 14.3794 17.2556H18.1294C18.4609 17.2556 18.7789 17.1239 19.0133 16.8895C19.2477 16.6551 19.3794 16.3372 19.3794 16.0056V4.75565C19.3794 4.42413 19.2477 4.10618 19.0133 3.87176C18.7789 3.63734 18.4609 3.50565 18.1294 3.50565Z" fill="#F8F8F3"/>
</svg>
