<svg width="14" height="3" viewBox="0 0 14 3" fill="none" xmlns="http://www.w3.org/2000/svg">
<path d="M1.33386 2.11237C1.88615 2.11237 2.33386 1.66465 2.33386 1.11237C2.33386 0.560081 1.88615 0.112366 1.33386 0.112366C0.781578 0.112366 0.333862 0.560081 0.333862 1.11237C0.333862 1.66465 0.781578 2.11237 1.33386 2.11237Z" fill="#F8F8F3"/>
<path d="M7.11237 2.11237C7.66465 2.11237 8.11237 1.66465 8.11237 1.11237C8.11237 0.560081 7.66465 0.112366 7.11237 0.112366C6.56008 0.112366 6.11237 0.560081 6.11237 1.11237C6.11237 1.66465 6.56008 2.11237 7.11237 2.11237Z" fill="#F8F8F3"/>
<path d="M12.8909 2.11237C13.4432 2.11237 13.8909 1.66465 13.8909 1.11237C13.8909 0.560081 13.4432 0.112366 12.8909 0.112366C12.3386 0.112366 11.8909 0.560081 11.8909 1.11237C11.8909 1.66465 12.3386 2.11237 12.8909 2.11237Z" fill="#F8F8F3"/>
</svg>
