<svg width="15" height="16" viewBox="0 0 15 16" fill="none" xmlns="http://www.w3.org/2000/svg">
<path d="M1.375 15.5C1.20924 15.5 1.05027 15.4342 0.933058 15.3169C0.815848 15.1997 0.75 15.0408 0.75 14.875V1.125C0.749992 1.01639 0.778289 0.909646 0.832101 0.8153C0.885913 0.720954 0.963383 0.64226 1.05687 0.586976C1.15037 0.531691 1.25665 0.501725 1.36525 0.50003C1.47385 0.498336 1.58102 0.524972 1.67619 0.577313L14.1762 7.45231C14.2743 7.50624 14.356 7.58551 14.413 7.68185C14.47 7.77819 14.5 7.88805 14.5 7.99997C14.5 8.11189 14.47 8.22175 14.413 8.31809C14.356 8.41443 14.2743 8.4937 14.1762 8.54763L1.67619 15.4226C1.58391 15.4734 1.48031 15.5 1.375 15.5ZM2 2.18181V13.818L12.578 8L2 2.18181Z" fill="#F8F8F3"/>
</svg>
